<svg fill="currentColor" xmlns="http://www.w3.org/2000/svg" version="1.1" x="0px" y="0px" viewBox="0 0 100 125"
     enable-background="new 0 0 100 100" xml:space="preserve"><path d="M84.055,80.343H19.658V15.944c0-2.051-1.662-3.713-3.713-3.713s-3.713,1.662-3.713,3.713v68.111  c0,2.051,1.662,3.713,3.713,3.713h68.11c2.051,0,3.713-1.662,3.713-3.713S86.106,80.343,84.055,80.343z"/><path d="M25.459,74.584c0.485,0.212,0.99,0.313,1.488,0.313c1.43,0,2.792-0.831,3.403-2.225l8.46-19.315l11.486,8.097  c0.94,0.664,2.133,0.854,3.231,0.515c1.099-0.338,1.979-1.166,2.383-2.241l9.962-26.482L81.127,23.22  c1.713-1.126,2.19-3.428,1.064-5.142c-1.126-1.713-3.428-2.19-5.142-1.063L60.784,27.702c-0.657,0.431-1.159,1.06-1.436,1.795  L50.65,52.618l-11.279-7.95c-0.912-0.644-2.065-0.844-3.137-0.542c-1.074,0.299-1.956,1.065-2.403,2.087l-10.284,23.48  C22.725,71.571,23.581,73.761,25.459,74.584z"/></svg>
