<svg xmlns:dc="http://purl.org/dc/elements/1.1/" xmlns:cc="http://creativecommons.org/ns#" xmlns:rdf="http://www.w3.org/1999/02/22-rdf-syntax-ns#" xmlns:svg="http://www.w3.org/2000/svg" xmlns="http://www.w3.org/2000/svg" xmlns:sodipodi="http://sodipodi.sourceforge.net/DTD/sodipodi-0.dtd" xmlns:inkscape="http://www.inkscape.org/namespaces/inkscape" viewBox="0 0 12.7 15.875" version="1.1" x="0px" y="0px"><g transform="translate(0,-284.29998)"><path style="" d="M 6.2687378,288.11141 A 2.5398074,2.5398074 0 0 0 3.9258524,289.8927 H 1.2866336 a 0.75761,0.75761 0 0 0 0,1.51515 h 2.6392188 a 2.5398074,2.5398074 0 0 0 4.8482249,0 h 2.6392187 a 0.75761,0.75761 0 0 0 0,-1.51515 H 8.7740773 a 2.5398074,2.5398074 0 0 0 -2.5053395,-1.78129 z m 0.056356,1.51102 a 1.0227634,1.0227634 0 0 1 1.0474854,1.02785 1.0227634,1.0227634 0 1 1 -2.0452291,0 1.0227634,1.0227634 0 0 1 0.9977437,-1.02785 z" fill="currentColor" stroke="none"/></g></svg>
