<svg fill="currentColor" xmlns="http://www.w3.org/2000/svg" xml:space="preserve" version="1.1"
     style="shape-rendering:geometricPrecision;text-rendering:geometricPrecision;image-rendering:optimizeQuality;"
     viewBox="0 0 382 335" x="0px" y="0px" fill-rule="evenodd" clip-rule="evenodd"><defs><style type="text/css">
   
    .fil0 {fill:currentColor;fill-rule:nonzero}
   
  </style></defs><g><path class="fil0" d="M144 311l0 -99c0,-7 5,-12 12,-12l71 0c7,0 12,5 12,12l0 99 75 0 0 -192 -123 -92 -123 92 0 192 76 0zm170 -222l0 -32c0,-6 5,-12 12,-12 6,0 12,6 12,12l-1 50 41 30c5,4 6,11 2,16 -4,6 -11,7 -17,3l-26 -20 0 186c1,7 -4,13 -12,13l-268 0c-7,0 -12,-5 -12,-12l0 -187 -26 20c-5,4 -13,3 -17,-3 -4,-5 -2,-12 3,-16l179 -135c4,-3 10,-3 14,0l116 87zm-99 222l0 -88 -48 0 0 88 48 0z"></path></g></svg>
