<svg xmlns="http://www.w3.org/2000/svg" version="1.1" x="0px" y="0px" viewBox="0 0 16 20" xml:space="preserve"><path fill="currentColor" d="M12,7c-0.737,0-1.375,0.405-1.722,1H8.5C6.642,8,5.132,6.54,5.021,4.71C5.605,4.361,6,3.728,6,3c0-1.103-0.897-2-2-2  S2,1.897,2,3c0,0.737,0.405,1.375,1,1.722v6.556C2.405,11.625,2,12.263,2,13c0,1.103,0.897,2,2,2s2-0.897,2-2  c0-0.737-0.405-1.375-1-1.722V8.739C5.952,9.526,7.172,10,8.5,10h1.778c0.347,0.595,0.985,1,1.722,1c1.103,0,2-0.897,2-2  C14,7.897,13.103,7,12,7z M4,2c0.551,0,1,0.449,1,1S4.551,4,4,4S3,3.551,3,3S3.449,2,4,2z M4,14c-0.551,0-1-0.448-1-1s0.449-1,1-1  s1,0.448,1,1S4.551,14,4,14z M12,10c-0.552,0-1-0.448-1-1c0-0.551,0.448-1,1-1s1,0.449,1,1C13,9.552,12.552,10,12,10z"/></svg>
