<svg xmlns="http://www.w3.org/2000/svg" xmlns:xlink="http://www.w3.org/1999/xlink" version="1.1" x="0px" y="0px" viewBox="0 0 100 125" style="enable-background:new 0 0 100 100;" xml:space="preserve"><style type="text/css">
	.st0{fill:none;stroke:currentColor;stroke-width:3.5;stroke-linecap:round;stroke-linejoin:round;stroke-miterlimit:10;}
</style><g><path class="st0" d="M45.4,20.3H21.2c-0.8,0-1.4,0.6-1.4,1.4v23.6c0,0.8,0.6,1.4,1.4,1.4h23.6c0.8,0,1.4-0.6,1.4-1.4V21.1   C46.2,20.7,45.8,20.3,45.4,20.3L45.4,20.3z"/></g><g><path class="st0" d="M79.4,20.3H55.2c-0.8,0-1.4,0.6-1.4,1.4v23.6c0,0.8,0.6,1.4,1.4,1.4h23.6c0.8,0,1.4-0.6,1.4-1.4V21.1   C80.2,20.7,79.8,20.3,79.4,20.3L79.4,20.3z"/></g><g><path class="st0" d="M45.4,53.3H21.2c-0.8,0-1.4,0.6-1.4,1.4v23.6c0,0.8,0.6,1.4,1.4,1.4h23.6c0.8,0,1.4-0.6,1.4-1.4V54.1   C46.2,53.7,45.8,53.3,45.4,53.3L45.4,53.3z"/></g><g><path class="st0" d="M79.4,53.3H55.2c-0.8,0-1.4,0.6-1.4,1.4v23.6c0,0.8,0.6,1.4,1.4,1.4h23.6c0.8,0,1.4-0.6,1.4-1.4V54.1   C80.2,53.7,79.8,53.3,79.4,53.3L79.4,53.3z"/></g></svg>
